<?xml version="1.0" encoding="UTF-8" standalone="no"?>
<!-- Created with Inkscape (http://www.inkscape.org/) -->

<svg
   xmlns:dc="http://purl.org/dc/elements/1.1/"
   xmlns:cc="http://creativecommons.org/ns#"
   xmlns:rdf="http://www.w3.org/1999/02/22-rdf-syntax-ns#"
   xmlns:svg="http://www.w3.org/2000/svg"
   xmlns="http://www.w3.org/2000/svg"
   xmlns:sodipodi="http://sodipodi.sourceforge.net/DTD/sodipodi-0.dtd"
   xmlns:inkscape="http://www.inkscape.org/namespaces/inkscape"
   width="99.114586mm"
   height="21.177999mm"
   viewBox="0 0 99.114586 21.177999"
   version="1.1"
   id="svg615"
   inkscape:version="0.92.5 (2060ec1f9f, 2020-04-08)"
   sodipodi:docname="pwr_logo.svg">
  <defs
     id="defs609" />
  <sodipodi:namedview
     id="base"
     pagecolor="#ffffff"
     bordercolor="#666666"
     borderopacity="1.0"
     inkscape:pageopacity="0.0"
     inkscape:pageshadow="2"
     inkscape:zoom="1.4"
     inkscape:cx="69.044141"
     inkscape:cy="-5.2819404"
     inkscape:document-units="mm"
     inkscape:current-layer="layer1"
     showgrid="false"
     inkscape:window-width="1920"
     inkscape:window-height="1003"
     inkscape:window-x="0"
     inkscape:window-y="0"
     inkscape:window-maximized="1"
     fit-margin-top="0"
     fit-margin-left="0"
     fit-margin-right="0"
     fit-margin-bottom="0" />
  <metadata
     id="metadata612">
    <rdf:RDF>
      <cc:Work
         rdf:about="">
        <dc:format>image/svg+xml</dc:format>
        <dc:type
           rdf:resource="http://purl.org/dc/dcmitype/StillImage" />
        <dc:title></dc:title>
      </cc:Work>
    </rdf:RDF>
  </metadata>
  <g
     inkscape:label="Layer 1"
     inkscape:groupmode="layer"
     id="layer1"
     transform="translate(-29.439911,-141.26813)">
    <g
       id="g691"
       transform="translate(-6.641909e-7,-1.0158228e-5)">
      <path
         inkscape:connector-curvature="0"
         id="path146"
         style="fill:#b31c18;fill-opacity:1;fill-rule:evenodd;stroke:none;stroke-width:0.35277775"
         d="M 29.439912,141.26814 H 50.59035 v 21.15291 H 29.439912 Z" />
      <path
         inkscape:connector-curvature="0"
         id="path150"
         style="fill:#fbc589;fill-opacity:1;fill-rule:evenodd;stroke:none;stroke-width:0.35277775"
         d="m 47.075802,144.76555 -13.090877,-1.38219 v 0.0254 c 0.591961,0.24871 0.762705,0.96203 0.312561,1.4157 h 12.778316 z m -12.778316,15.54021 h -0.05891 l -1.284464,-15.90322 h 0.02999 c 0.221898,0.61912 0.817034,0.7747 1.313392,0.42192 z m 7.131755,-13.06689 c -0.05644,0.0272 -0.111125,0.073 -0.154164,0.121 -0.06279,0.0759 -0.265641,0.0381 -0.381,0.073 -0.07091,0.0212 -0.103716,0.0505 -0.108655,0.0374 0.03528,-0.0716 0.05962,-0.14358 0.118533,-0.19932 0.128058,-0.12206 0.515056,-0.20708 0.525286,-0.0321 m 5.646561,-0.96132 h -6.535208 l 3.44e-4,0.90311 c 0.154516,-0.0825 0.279753,-0.15487 0.445558,-0.20214 0.110772,-0.031 0.230011,-0.0649 0.347133,-0.0533 0.170745,0.0176 0.233892,0.13194 0.215195,0.25153 0.150636,-0.0808 0.434622,-0.12559 0.5715,-0.001 0.13088,0.11995 0.157339,0.31574 0.113947,0.47837 -0.1524,-0.16263 -0.348192,-0.20461 -0.555272,-0.10301 -0.155222,0.0758 -0.284339,0.20955 -0.354895,0.36618 0.06668,0.0765 0.282223,0.0155 0.355953,-0.0229 0.08184,-0.0423 0.153459,-0.11007 0.244475,-0.2099 -0.01129,0.14781 -0.02928,0.28504 -0.08255,0.35736 -0.101953,0.139 -0.2032,0.16686 -0.376061,0.22719 -0.134761,0.0466 -0.271286,0.11218 -0.404989,0.24765 -0.115711,0.15346 -0.144991,0.41981 -0.109361,0.64558 0.03881,0.24871 0.130528,0.51083 0.207786,0.768 0.07691,0.25753 0.1397,0.51118 0.121356,0.74295 0.396169,0.0639 1.033286,-0.37747 1.256947,-0.55809 0.24765,-0.20003 0.502003,-0.43286 0.624769,-0.65899 0.100198,-0.18451 0.129479,-0.55951 -0.05855,-0.85231 -0.355953,-0.55386 -0.161572,-1.44886 0.592314,-1.6764 0.462845,-0.13476 1.099256,-0.006 1.384653,0.51011 0.278342,0.50271 0.342547,1.06892 0.33408,1.66194 -0.01305,0.90875 -0.04939,1.47426 0.119592,2.1523 0.0829,0.33196 0.238125,0.63852 0.484011,0.92039 -0.192969,0.22896 -0.515761,0.0716 -0.764116,-0.14005 -0.367595,-0.31397 -0.681214,-1.0227 -0.883356,-2.16147 l -0.03881,0.14076 c -0.0092,0.6858 0.08008,1.21038 0.2286,1.82316 0.149931,0.61983 0.3683,0.98037 0.899231,1.38641 -0.291394,0.26317 -0.586317,0.14993 -0.843492,-0.0462 -0.511175,-0.38911 -0.730955,-0.83185 -0.940152,-1.72508 l -0.03845,0.0501 c -0.04445,0.52423 0.01058,1.04387 0.178505,1.51518 0.160867,0.4505 0.47237,0.8823 0.873125,1.21003 -0.272344,0.24588 -0.56903,0.0833 -0.816327,-0.096 -0.34925,-0.25294 -0.86995,-0.74225 -1.036814,-1.70039 l -0.04374,0.037 c -0.01764,0.54892 0.03351,1.0421 0.152047,1.46614 0.12065,0.43321 0.487892,0.94862 0.856898,1.19627 -0.306917,0.25965 -0.584906,0.10019 -0.809625,-0.0727 -0.597253,-0.45931 -0.972961,-1.10878 -1.110545,-1.97097 l -0.05327,0.0268 c -0.06421,0.93698 -0.05997,1.96462 0.779286,2.56399 l -0.333022,0.21026 0.19438,0.3309 c 0.08608,0.1457 0.862542,-0.25223 1.178631,0 0.127,0.10125 0.209197,0.26459 0.117122,0.47096 l -0.01905,-0.008 c -0.0081,-0.1457 -0.0822,-0.2226 -0.178858,-0.26282 -0.140759,-0.0582 -0.3556,-0.0427 -0.516467,0.14147 -0.311503,0.21096 -0.531283,0.061 -0.692503,0.27199 -0.0956,0.12488 -0.09349,0.2346 -0.05292,0.35807 l -0.01587,0.01 c -0.429684,-0.22472 -0.02787,-0.64065 -0.107598,-0.77999 l -0.208844,-0.36654 -0.33655,0.20355 c -0.03034,-0.24553 -0.413456,-1.55222 -0.644878,-1.64041 -0.05997,0.0861 -0.0568,0.31467 -0.06562,0.47237 -0.01235,0.22013 0.08855,0.381 0.06668,0.68826 -0.0095,0.13406 -0.07655,0.31821 -0.183797,0.50236 0.105481,0.0688 0.153459,0.17709 0.150989,0.30304 -0.0032,0.14146 -0.06632,0.3048 -0.110067,0.43779 -0.05644,0.17216 -0.10548,0.30233 -0.04092,0.30233 0.18415,-0.096 0.357011,-0.11289 0.505531,-0.0699 0.215194,0.0617 0.351719,0.2667 0.5461,0.36725 0.224719,0.11571 0.415925,0.0953 0.672747,0.19296 -0.350308,0.13406 -0.400756,0.49248 -0.877006,0.4184 -0.286102,-0.0441 -0.715786,-0.58561 -0.79375,-0.54081 -0.05468,0.16051 -0.0194,0.34749 0.01094,0.60008 0.01517,0.12558 0.02999,0.26846 0.03104,0.43215 0.0018,0.16333 -0.01023,0.34854 -0.04586,0.55915 -0.04798,0.28081 -0.149577,0.64135 -0.313619,1.02588 h 0.0042 c 6.4262,-2.14806 6.473472,-11.14531 6.527094,-14.02821 m -2.92488,1.6069 c -0.132292,0 -0.240242,-0.11394 -0.240242,-0.254 0,-0.13934 0.10795,-0.254 0.240242,-0.254 0.132291,0 0.240241,0.11466 0.240241,0.254 0,0.14006 -0.10795,0.254 -0.240241,0.254 m -0.440973,0.44627 c 0.131939,0 0.239889,-0.11395 0.239889,-0.25365 0,-0.14005 -0.10795,-0.254 -0.239889,-0.254 -0.132291,0 -0.240241,0.11395 -0.240241,0.254 0,0.1397 0.10795,0.25365 0.240241,0.25365 m 0.814564,0.073 c 0.132292,0 0.239889,-0.11394 0.239889,-0.25364 0,-0.14006 -0.107597,-0.254 -0.239889,-0.254 -0.132291,0 -0.240241,0.11394 -0.240241,0.254 0,0.1397 0.10795,0.25364 0.240241,0.25364 m -0.38488,-0.38452 c -0.04798,2.4077 -1.207559,4.27954 -3.597275,4.43018 l -3.44e-4,-0.67416 c 1.934633,-0.0621 3.381022,-1.97097 3.558116,-3.75602 z m -4.486958,-0.78073 c 0.05609,0.0275 0.110772,0.0734 0.153811,0.12135 0.0628,0.0759 0.265642,0.0381 0.381353,0.073 0.07056,0.0208 0.103717,0.0505 0.108303,0.0374 -0.03492,-0.072 -0.05962,-0.14358 -0.118533,-0.19967 -0.128059,-0.12171 -0.514703,-0.20673 -0.524934,-0.0321 m 0.884414,13.06724 h -0.0035 c -0.163337,-0.38382 -0.262115,-0.74542 -0.30974,-1.02588 -0.03563,-0.21025 -0.04763,-0.39582 -0.04621,-0.55915 0.0011,-0.16369 0.01623,-0.30657 0.0314,-0.43215 0.02999,-0.25259 0.06562,-0.43957 0.01093,-0.60008 -0.07832,-0.0448 -0.508,0.49636 -0.794102,0.54081 -0.475897,0.0741 -0.526697,-0.28434 -0.876653,-0.4184 0.256822,-0.0977 0.448028,-0.0773 0.672394,-0.19296 0.194734,-0.10055 0.330906,-0.30586 0.5461,-0.3676 0.148872,-0.0427 0.321381,-0.0257 0.505531,0.0702 0.06491,0 0.01588,-0.13017 -0.04057,-0.30233 -0.04374,-0.133 -0.107244,-0.29633 -0.110067,-0.4378 -0.0025,-0.12594 0.04516,-0.23424 0.150637,-0.30303 -0.106892,-0.18415 -0.17392,-0.3683 -0.183798,-0.50236 -0.02187,-0.30762 0.07938,-0.46849 0.06703,-0.68827 -0.0092,-0.15769 -0.0056,-0.38629 -0.06597,-0.47237 -0.231423,0.0882 -0.614186,1.39489 -0.644878,1.64042 l -0.336196,-0.20355 -0.209197,0.36653 c -0.07937,0.139 0.322086,0.55528 -0.107245,0.78 l -0.01588,-0.0102 c 0.04022,-0.12312 0.04233,-0.23284 -0.05292,-0.35807 -0.161219,-0.21061 -0.381,-0.0607 -0.692855,-0.27164 -0.160514,-0.18415 -0.375709,-0.20003 -0.516114,-0.14147 -0.09666,0.0402 -0.170745,0.11677 -0.178859,0.26282 l -0.01905,0.008 c -0.09208,-0.20673 -0.0099,-0.36971 0.117123,-0.47131 0.316088,-0.25188 1.092552,0.14605 1.178277,0 l 0.194705,-0.33054 -0.333022,-0.21025 c 0.839258,-0.59937 0.843492,-1.62701 0.779286,-2.56399 l -0.05362,-0.0268 c -0.137231,0.86219 -0.513292,1.5113 -1.110544,1.97097 -0.224367,0.17286 -0.502356,0.33232 -0.809273,0.0723 0.369006,-0.2473 0.735895,-0.76306 0.85725,-1.19592 0.118181,-0.42404 0.169334,-0.91722 0.151342,-1.46614 l -0.04339,-0.0374 c -0.166864,0.95849 -0.687917,1.4478 -1.036814,1.70074 -0.247297,0.17921 -0.544336,0.34184 -0.81668,0.0956 0.401108,-0.32738 0.712258,-0.75918 0.873125,-1.21003 0.168275,-0.47096 0.223308,-0.99095 0.178505,-1.51483 l -0.03845,-0.0501 c -0.208844,0.89324 -0.428625,1.33597 -0.940152,1.72509 -0.257175,0.19579 -0.551745,0.30938 -0.843492,0.0462 0.531283,-0.40605 0.749653,-0.76659 0.899583,-1.38677 0.148167,-0.61243 0.23742,-1.13701 0.2286,-1.82316 l -0.03881,-0.1404 c -0.202142,1.13877 -0.516114,1.8475 -0.883709,2.16147 -0.248002,0.21132 -0.571147,0.36901 -0.764116,0.14005 0.245886,-0.28186 0.401108,-0.58843 0.484011,-0.92039 0.16898,-0.67804 0.132644,-1.24354 0.119592,-2.1523 -0.0085,-0.59302 0.05574,-1.15923 0.33408,-1.66194 0.28575,-0.51576 0.921808,-0.64523 1.384653,-0.51011 0.753886,0.22754 0.948267,1.12218 0.592314,1.6764 -0.188031,0.2928 -0.158397,0.66781 -0.05856,0.85231 0.123119,0.22613 0.377472,0.45896 0.625122,0.65863 0.223661,0.18063 0.860425,0.6223 1.256947,0.55845 -0.01834,-0.23177 0.04445,-0.48542 0.121355,-0.74295 0.07691,-0.25717 0.168628,-0.51929 0.207786,-0.768 0.03528,-0.22577 0.0064,-0.49212 -0.109361,-0.64558 -0.133703,-0.13582 -0.27058,-0.20108 -0.404989,-0.24765 -0.173214,-0.0607 -0.27446,-0.0885 -0.37606,-0.22719 -0.05362,-0.0727 -0.07126,-0.20955 -0.0829,-0.35736 0.09137,0.0998 0.162983,0.16757 0.244475,0.20955 0.07408,0.0388 0.289277,0.0998 0.356305,0.0233 -0.07056,-0.15663 -0.200025,-0.29069 -0.354894,-0.36618 -0.207081,-0.1016 -0.403225,-0.0596 -0.555625,0.10301 -0.04339,-0.16263 -0.01658,-0.35842 0.114653,-0.47837 0.136172,-0.12453 0.420158,-0.0797 0.571147,0.001 -0.0187,-0.11959 0.04445,-0.23389 0.215194,-0.25153 0.117122,-0.0116 0.236361,0.0219 0.346781,0.0533 0.166158,0.0473 0.291394,0.11959 0.445911,0.20214 z M 36.930972,147.8845 c 0.132292,0 0.239889,-0.11394 0.239889,-0.254 0,-0.13934 -0.107597,-0.254 -0.239889,-0.254 -0.132644,0 -0.240242,0.11466 -0.240242,0.254 0,0.14006 0.107598,0.254 0.240242,0.254 m 0.440972,0.44627 c -0.132291,0 -0.240241,-0.11395 -0.240241,-0.254 0,-0.1397 0.10795,-0.25365 0.240241,-0.25365 0.132292,0 0.240242,0.11395 0.240242,0.25365 0,0.14005 -0.10795,0.254 -0.240242,0.254 m -0.814564,0.073 c -0.132291,0 -0.240241,-0.11394 -0.240241,-0.25364 0,-0.14006 0.10795,-0.25436 0.240241,-0.25436 0.132292,0 0.239889,0.1143 0.239889,0.25436 0,0.1397 -0.107597,0.25364 -0.239889,0.25364 m 0.384881,-0.38453 c 0.04798,2.40771 1.207206,4.2792 3.597275,4.43019 v -0.67416 c -1.934633,-0.0621 -3.381022,-1.97097 -3.557764,-3.75603 z" />
      <path
         inkscape:connector-curvature="0"
         id="path154"
         style="fill:#231f20;fill-opacity:1;fill-rule:evenodd;stroke:none;stroke-width:0.35277775"
         d="m 128.54284,162.44614 v -0.21025 H 109.51507 71.80136 52.774291 v 0.21025 h 19.027069 37.71371 z" />
      <path
         inkscape:connector-curvature="0"
         id="path158"
         style="fill:#231f20;fill-opacity:1;fill-rule:evenodd;stroke:none;stroke-width:0.35277775"
         d="m 63.323721,148.87831 c -0.02328,0.11959 -0.03493,0.29421 -0.03493,0.52387 l -0.05503,0.0349 c -0.115004,-0.06 -0.225425,-0.09 -0.331259,-0.09 -0.257527,0 -0.442735,0.11218 -0.555625,0.33831 -0.112183,0.22543 -0.168627,0.5775 -0.168627,1.05552 0,0.58455 0.01093,1.04845 0.03422,1.39382 -0.08714,-0.018 -0.186267,-0.0279 -0.296685,-0.0279 -0.0829,0 -0.170392,0.007 -0.26176,0.0212 0.02257,-0.54292 0.03422,-1.29258 0.03422,-2.24966 0,-0.4191 -0.01164,-0.75213 -0.03422,-1.00013 0.09137,0.0183 0.190851,0.0272 0.296685,0.0272 0.105481,0 0.202493,-0.009 0.289983,-0.0272 -0.02822,0.22013 -0.04163,0.47413 -0.04163,0.75847 0.248002,-0.52916 0.535162,-0.79375 0.862187,-0.79375 0.0508,0 0.137938,0.012 0.262467,0.0353 m 3.601863,1.62772 c 0,0.50623 -0.154871,0.9144 -0.462846,1.22484 -0.307975,0.31115 -0.699204,0.46567 -1.172634,0.46567 -0.478718,0 -0.870302,-0.15628 -1.176866,-0.46919 -0.305859,-0.31257 -0.458259,-0.71932 -0.458259,-1.22132 0,-0.49636 0.154872,-0.9017 0.465315,-1.21779 0.310798,-0.31468 0.700617,-0.47202 1.16981,-0.47202 0.482955,0 0.875948,0.15628 1.180042,0.46884 0.30339,0.31292 0.455438,0.71967 0.455438,1.22097 m -0.593725,0.0416 c 0,-1.01636 -0.349605,-1.52471 -1.048808,-1.52471 -0.690034,0 -1.035405,0.49213 -1.035405,1.47673 0,0.99342 0.34784,1.49049 1.042458,1.49049 0.694622,0 1.041755,-0.48084 1.041755,-1.44251 m 3.850217,-1.45627 c -0.07373,0.17039 -0.135822,0.36795 -0.186622,0.59408 -0.19332,-0.43251 -0.505883,-0.64947 -0.938035,-0.64947 -0.36336,0 -0.64629,0.12877 -0.848783,0.38347 -0.202848,0.25577 -0.303742,0.61772 -0.303742,1.08656 0,0.45085 0.10936,0.8061 0.327732,1.0668 0.218016,0.25964 0.50941,0.38911 0.873125,0.38911 0.367945,0 0.715433,-0.16545 1.041751,-0.49636 -0.0099,0.12842 -0.01341,0.21344 -0.01341,0.25471 0,0.0646 0.0019,0.11077 0.0067,0.13829 -0.294923,0.23036 -0.688271,0.34502 -1.180042,0.34502 -0.483306,0 -0.871714,-0.15417 -1.165931,-0.46179 -0.294569,-0.30903 -0.441677,-0.7179 -0.441677,-1.22837 0,-0.51506 0.154869,-0.92675 0.465667,-1.23543 0.310443,-0.30798 0.723545,-0.46214 1.238602,-0.46214 0.39511,0 0.770466,0.0921 1.124656,0.27552 m 1.648883,-0.36512 c -0.115006,0.0684 -0.280813,0.17462 -0.497064,0.3175 0,1.57762 0.01164,2.60808 0.03493,3.09068 -0.101249,-0.0134 -0.200377,-0.0201 -0.296686,-0.0201 -0.09243,0 -0.184504,0.007 -0.276225,0.0201 0.01834,-0.53305 0.02822,-1.11584 0.02822,-1.74554 v -1.00049 c -0.06068,0.0462 -0.219427,0.17287 -0.476602,0.37924 v -0.35842 c 0.156281,-0.0871 0.3175,-0.1905 0.482952,-0.31045 v -0.17991 c 0,-0.82727 -0.01164,-1.48026 -0.03457,-1.95862 0.119592,0.009 0.211667,0.0134 0.276225,0.0134 0.06879,0 0.167217,-0.005 0.296686,-0.0134 -0.02328,0.49177 -0.03493,1.06468 -0.03493,1.71732 v 0.0762 c 0.179564,-0.12877 0.345368,-0.26 0.497064,-0.3937 z m 3.194402,3.29776 c -0.248002,0.0737 -0.43674,0.11077 -0.565502,0.11077 -0.211314,0 -0.338314,-0.13335 -0.379589,-0.4004 -0.294569,0.30868 -0.637117,0.46249 -1.027994,0.46249 -0.635,0 -0.952148,-0.28328 -0.952148,-0.84843 0,-0.4833 0.2667,-0.78246 0.8001,-0.89746 0.252942,-0.0504 0.508352,-0.1009 0.765881,-0.1524 0.216604,-0.0455 0.361244,-0.10019 0.434975,-0.16405 v -0.1457 c 0,-0.30833 -0.05891,-0.53622 -0.175683,-0.68262 -0.117475,-0.14782 -0.313973,-0.22119 -0.590198,-0.22119 -0.377473,0 -0.673807,0.16368 -0.89041,0.49 h -0.05503 l 0.01376,-0.36547 c 0.307975,-0.25753 0.678743,-0.38665 1.11125,-0.38665 0.385937,0 0.664278,0.0924 0.83467,0.2794 0.17004,0.18592 0.255058,0.47907 0.255058,0.87983 v 0.0825 l -0.02752,1.37336 c 0,0.15593 0.01164,0.26247 0.03457,0.31715 0.04127,0.0924 0.130881,0.13829 0.269168,0.13829 0.05045,0 0.08996,-0.003 0.117475,-0.007 z m -0.938041,-0.7105 v -0.89006 c -0.542925,0.0924 -0.904171,0.18451 -1.083381,0.27588 -0.225425,0.11536 -0.338315,0.30197 -0.338315,0.5588 0,0.43709 0.204965,0.65546 0.61454,0.65546 0.257175,0 0.487185,-0.10054 0.690033,-0.30339 0.07797,-0.0783 0.117123,-0.17709 0.117123,-0.29669 m 6.112931,-2.43522 c -0.735542,1.65523 -1.172634,2.74143 -1.310569,3.25649 -0.0695,-0.0141 -0.138642,-0.0205 -0.207081,-0.0205 -0.06456,0 -0.131234,0.006 -0.200377,0.0205 -0.04551,-0.2854 -0.329142,-1.11584 -0.848784,-2.49061 -0.423333,1.01635 -0.712964,1.84644 -0.868891,2.49061 -0.04198,-0.009 -0.105834,-0.0141 -0.193323,-0.0141 -0.08749,0 -0.154517,0.005 -0.200377,0.0141 -0.119592,-0.51506 -0.51929,-1.60126 -1.200854,-3.25649 0.09243,0.0183 0.194027,0.0272 0.303739,0.0272 0.115358,0 0.218723,-0.009 0.310446,-0.0272 0.13335,0.53798 0.421217,1.37971 0.863246,2.52518 0.330554,-0.73625 0.632179,-1.57762 0.903113,-2.52518 0.06914,0.0134 0.138641,0.0201 0.207078,0.0201 0.06456,0 0.131588,-0.007 0.200025,-0.0201 0.304097,1.131 0.591257,1.97132 0.862542,2.51848 0.243771,-0.50165 0.563388,-1.34126 0.959205,-2.51848 0.1016,0.009 0.17286,0.0134 0.214135,0.0134 0.04586,0 0.115006,-0.005 0.206727,-0.0134 m 6.361996,-1.45662 c -0.02294,0.59372 -0.03492,1.01212 -0.03492,1.25624 v 0.17956 c 0,0.7493 -0.0113,1.26965 -0.03457,1.55893 -0.04092,0.43744 -0.123825,0.76623 -0.248002,0.98707 -0.317148,0.54716 -0.878771,0.82092 -1.683808,0.82092 -0.685449,0 -1.184275,-0.16687 -1.49719,-0.50024 -0.312568,-0.33303 -0.469202,-0.85866 -0.469202,-1.57621 0,-0.0279 0.0035,-0.20038 0.01024,-0.51824 0.0071,-0.31714 0.01093,-0.61841 0.01093,-0.90346 0,-0.37253 -0.0074,-0.80715 -0.02117,-1.30457 0.09102,0.019 0.190852,0.0282 0.300567,0.0282 0.122412,0 0.229304,-0.0113 0.320675,-0.0346 l -0.02752,2.51142 c 0,0.34961 0.01588,0.61419 0.04798,0.7934 0.04586,0.29492 0.145344,0.53375 0.297392,0.71755 0.258233,0.31292 0.63641,0.4692 1.134533,0.4692 0.502708,0 0.883357,-0.16052 1.141235,-0.48296 0.147463,-0.18415 0.244123,-0.43674 0.290338,-0.75882 0.0321,-0.21626 0.04798,-0.57679 0.04798,-1.08374 0,-0.77681 -0.0088,-1.49648 -0.02717,-2.1597 0.06844,0.019 0.140407,0.0282 0.213784,0.0282 0.08326,0 0.158398,-0.009 0.227896,-0.0282 m 3.698168,4.71311 c -0.105833,-0.0229 -0.200376,-0.0346 -0.282575,-0.0346 -0.08361,0 -0.177093,0.0116 -0.283281,0.0346 0.02752,-0.48295 0.04163,-1.13348 0.04163,-1.95263 0,-0.68086 -0.262467,-1.02129 -0.786342,-1.02129 -0.271992,0 -0.485775,0.0988 -0.642057,0.29704 -0.156633,0.19756 -0.234598,0.55669 -0.234598,1.07562 v 0.31115 c 0,0.62512 0.0071,1.05516 0.02045,1.29011 -0.105482,-0.0229 -0.202142,-0.0346 -0.289632,-0.0346 -0.0829,0 -0.177093,0.0116 -0.282575,0.0346 0.01834,-0.25717 0.02716,-0.65793 0.02716,-1.20086 v -0.48965 c 0,-0.7179 -0.0088,-1.24002 -0.02716,-1.56598 0.08749,0.0183 0.181327,0.0272 0.282575,0.0272 0.105482,0 0.195085,-0.009 0.269169,-0.0272 -0.0095,0.1658 -0.01376,0.28257 -0.01376,0.35136 0,0.0275 0.0021,0.0692 0.0071,0.12489 v 0.12347 c 0.261408,-0.44556 0.622652,-0.66851 1.083381,-0.66851 0.735542,0 1.103842,0.41134 1.103842,1.23472 0,0.11465 -0.0024,0.28398 -0.0071,0.50729 -0.0042,0.22261 -0.0071,0.387 -0.0071,0.49354 0,0.34043 0.0071,0.70414 0.02082,1.08973 m 1.586793,-4.45735 c 0,0.0963 -0.03422,0.17921 -0.10301,0.24871 -0.0695,0.0684 -0.152048,0.10336 -0.248708,0.10336 -0.09631,0 -0.179565,-0.0349 -0.248357,-0.10336 -0.06914,-0.0695 -0.103362,-0.1524 -0.103362,-0.24871 0,-0.097 0.03422,-0.17815 0.103362,-0.24518 0.06879,-0.066 0.152049,-0.0998 0.248357,-0.0998 0.09666,0 0.17921,0.0339 0.248708,0.0998 0.06879,0.067 0.10301,0.14817 0.10301,0.24518 m -0.06879,4.45735 c -0.1016,-0.0229 -0.195792,-0.0346 -0.282927,-0.0346 -0.08326,0 -0.177448,0.0116 -0.282927,0.0346 0.02294,-0.63006 0.03457,-1.20086 0.03457,-1.71133 0,-0.46919 -0.01164,-0.98425 -0.03457,-1.54516 0.08784,0.0183 0.181327,0.0272 0.282927,0.0272 0.110067,0 0.204965,-0.009 0.282927,-0.0272 -0.02294,0.56585 -0.03422,1.08056 -0.03422,1.54516 0,0.51047 0.0113,1.08127 0.03422,1.71133 m 3.58775,-3.25649 c -0.745419,1.651 -1.20015,2.7365 -1.366309,3.25649 -0.05044,-0.009 -0.121708,-0.0141 -0.213428,-0.0141 -0.08714,0 -0.151697,0.005 -0.193323,0.0141 -0.188384,-0.60748 -0.632532,-1.69298 -1.331736,-3.25649 0.09172,0.0183 0.195437,0.0272 0.310092,0.0272 0.119592,0 0.228245,-0.009 0.324554,-0.0272 0.152048,0.56585 0.490008,1.43757 1.014238,2.61479 0.441325,-0.85584 0.782108,-1.72685 1.021643,-2.61479 0.06879,0.0183 0.142169,0.0272 0.22084,0.0272 0.08255,0 0.15381,-0.009 0.213429,-0.0272 m 3.097741,1.4351 v 0.0759 c -0.0042,0.0324 -0.0063,0.0575 -0.0063,0.0755 h -2.374199 v 0.0215 c 0,0.95708 0.386643,1.43439 1.159227,1.43439 0.396171,0 0.750006,-0.15381 1.062921,-0.46249 -0.0095,0.11995 -0.01376,0.20708 -0.01376,0.26247 v 0.0829 c -0.35913,0.26211 -0.749655,0.39335 -1.172988,0.39335 -0.482952,0 -0.875594,-0.15628 -1.176512,-0.46955 -0.301625,-0.31256 -0.452263,-0.7172 -0.452263,-1.21391 0,-0.51541 0.14464,-0.92816 0.434623,-1.2386 0.289983,-0.3108 0.673806,-0.46532 1.152877,-0.46532 0.441679,0 0.782463,0.12983 1.024466,0.38912 0.2413,0.26035 0.36195,0.63147 0.36195,1.11478 m -0.551741,-0.09 v -0.11818 c 0,-0.3422 -0.07691,-0.60925 -0.231069,-0.80116 -0.153813,-0.19156 -0.365125,-0.28787 -0.631473,-0.28787 -0.262115,0 -0.483306,0.10584 -0.662165,0.31856 -0.17921,0.22684 -0.276225,0.52317 -0.289983,0.88865 z m 2.863498,-1.34514 c -0.0229,0.11959 -0.0349,0.29421 -0.0349,0.52387 l -0.055,0.0349 c -0.11501,-0.06 -0.22507,-0.09 -0.33055,-0.09 -0.25859,0 -0.443447,0.11218 -0.555982,0.33831 -0.11289,0.22543 -0.169333,0.5775 -0.169333,1.05551 0,0.58456 0.01164,1.04846 0.03528,1.39383 -0.08749,-0.018 -0.186971,-0.0279 -0.296685,-0.0279 -0.08361,0 -0.171099,0.007 -0.262819,0.0212 0.02294,-0.54293 0.03422,-1.29258 0.03422,-2.24966 0,-0.4191 -0.0113,-0.75213 -0.03422,-1.00013 0.09172,0.0183 0.191204,0.0272 0.297037,0.0272 0.10513,0 0.20179,-0.009 0.289632,-0.0272 -0.02716,0.22013 -0.04127,0.47413 -0.04127,0.75847 0.248001,-0.52916 0.53587,-0.79375 0.86219,-0.79375 0.0508,0 0.13794,0.012 0.26247,0.0353 m 2.22814,2.23555 c 0,0.31257 -0.11254,0.57115 -0.33761,0.77576 -0.22542,0.20532 -0.51999,0.30692 -0.88335,0.30692 -0.35843,0 -0.65546,-0.0822 -0.89006,-0.248 0.0688,-0.17463 0.12453,-0.35208 0.16545,-0.53129 0.22578,0.34537 0.50624,0.51753 0.84208,0.51753 0.20708,0 0.37042,-0.0564 0.48966,-0.16863 0.11994,-0.11254 0.17956,-0.26458 0.17956,-0.45826 0,-0.27517 -0.18203,-0.4632 -0.54539,-0.56409 l -0.3168,-0.0903 c -0.26247,-0.073 -0.45226,-0.17885 -0.56939,-0.31608 -0.11747,-0.13723 -0.17639,-0.32773 -0.17639,-0.57115 0,-0.27623 0.0967,-0.50271 0.29034,-0.68192 0.19297,-0.17886 0.44838,-0.26811 0.76553,-0.26811 0.33161,0 0.61877,0.0755 0.86254,0.22754 -0.0688,0.14287 -0.11712,0.28716 -0.14429,0.43427 -0.26282,-0.30304 -0.52952,-0.45508 -0.80115,-0.45508 -0.17463,0 -0.31574,0.0536 -0.42404,0.16227 -0.10795,0.10831 -0.16228,0.2466 -0.16228,0.41734 0,0.28504 0.17498,0.47837 0.52423,0.57997 l 0.46954,0.13793 c 0.44133,0.12841 0.66181,0.393 0.66181,0.7934 m 1.25589,-3.43641 c 0,0.0963 -0.0346,0.17921 -0.10301,0.24871 -0.0691,0.0684 -0.15204,0.10336 -0.248,0.10336 -0.0967,0 -0.18027,-0.0349 -0.24871,-0.10336 -0.0695,-0.0695 -0.10372,-0.1524 -0.10372,-0.24871 0,-0.097 0.0342,-0.17815 0.10372,-0.24518 0.0684,-0.066 0.15205,-0.0998 0.24871,-0.0998 0.096,0 0.17886,0.0339 0.248,0.0998 0.0684,0.067 0.10301,0.14817 0.10301,0.24518 m -0.0684,4.45735 c -0.1016,-0.0229 -0.19614,-0.0346 -0.28257,-0.0346 -0.0836,0 -0.17815,0.0116 -0.28364,0.0346 0.0229,-0.63006 0.0349,-1.20086 0.0349,-1.71133 0,-0.46919 -0.012,-0.98425 -0.0349,-1.54516 0.0871,0.0183 0.18204,0.0272 0.28364,0.0272 0.10971,0 0.20426,-0.009 0.28257,-0.0272 -0.0233,0.56585 -0.0346,1.08056 -0.0346,1.54516 0,0.51047 0.0113,1.08127 0.0346,1.71133 m 5.5058,-3.25649 c -0.13793,0.27128 -0.35665,0.74471 -0.65546,1.42028 l -0.92498,2.09127 c -0.33549,0.75882 -0.51223,1.18463 -0.59549,1.51094 -0.0734,-0.0134 -0.15169,-0.0205 -0.23424,-0.0205 -0.0783,0 -0.15875,0.007 -0.2413,0.0205 0.22966,-0.38558 0.45014,-0.7821 0.72602,-1.42098 l 0.1591,-0.36548 -0.28963,-0.75918 c -0.13723,-0.35701 -0.49283,-1.17581 -1.0668,-2.45498 -0.0116,0.0624 -0.0169,0.13159 -0.0169,0.20602 v 0.0547 c -0.24801,-0.0138 -0.45967,-0.0208 -0.63465,-0.0208 -0.11501,0 -0.19756,0.002 -0.24836,0.007 l -0.0134,0.34466 c 0,0.1337 -0.005,0.37747 -0.0138,0.73166 -0.009,0.35454 -0.0141,0.64417 -0.0141,0.86925 0,0.30833 0.0438,0.53022 0.13089,0.66604 0.0875,0.13582 0.23741,0.2032 0.44873,0.2032 0.11924,0 0.28046,-0.0483 0.4826,-0.14464 l 0.0483,0.1517 c -0.2346,0.15663 -0.48507,0.23459 -0.75142,0.23459 -0.31785,0 -0.54328,-0.0744 -0.67627,-0.22436 -0.13371,-0.14923 -0.20003,-0.38947 -0.20003,-0.72108 0,-0.0688 0.005,-0.3115 0.0173,-0.72743 0.0109,-0.41628 0.0169,-0.79939 0.0169,-1.149 v -0.2346 h -0.0755 c -0.11571,0 -0.2353,0.007 -0.35913,0.0208 0.009,-0.0829 0.0138,-0.14288 0.0138,-0.17957 v -0.0554 c -0.005,-0.0275 -0.007,-0.0455 -0.007,-0.0547 0.14676,0.0134 0.29422,0.0205 0.44168,0.0205 v -0.2279 c 0,-0.14675 -0.005,-0.34007 -0.0141,-0.57926 0.21625,-0.0367 0.4004,-0.0945 0.5521,-0.17286 -0.0141,0.29492 -0.0212,0.47625 -0.0212,0.54504 v 0.45544 c 0.24976,0 0.54433,-0.0138 0.88406,-0.0399 l -8e-4,-0.001 0.005,7.1e-4 0.009,-7.1e-4 -7.9e-4,0.002 c 0.0938,0.0166 0.20214,0.0247 0.32456,0.0247 0.12417,0 0.23459,-0.009 0.33125,-0.0272 0.11995,0.41874 0.36583,1.08549 0.73837,2.00095 l 0.2413,0.59302 0.24835,-0.57291 c 0.34961,-0.80927 0.60749,-1.48308 0.77294,-2.02106 0.0695,0.0183 0.14675,0.0272 0.2346,0.0272 0.0829,0 0.15875,-0.009 0.22789,-0.0272 m -51.624614,9.00713 c 0,0.50623 -0.154162,0.91475 -0.462137,1.22449 -0.307975,0.3108 -0.699558,0.46602 -1.172988,0.46602 -0.478367,0 -0.870302,-0.15628 -1.175807,-0.46919 -0.306564,-0.31292 -0.459317,-0.72038 -0.459317,-1.22132 0,-0.49636 0.155222,-0.90241 0.465314,-1.21779 0.310444,-0.31538 0.700968,-0.47237 1.16981,-0.47237 0.483306,0 0.875948,0.15663 1.180042,0.46919 0.303741,0.31257 0.455083,0.71967 0.455083,1.22097 m -0.593019,0.0413 c 0,-1.016 -0.350308,-1.52541 -1.04916,-1.52541 -0.689681,0 -1.035051,0.49318 -1.035051,1.47743 0,0.99342 0.347839,1.49049 1.042105,1.49049 0.694267,0 1.042106,-0.48084 1.042106,-1.44251 m 2.780242,-3.5807 -0.06914,0.53764 c -0.114655,-0.0547 -0.24624,-0.0829 -0.392997,-0.0829 -0.391228,0 -0.586668,0.21449 -0.586668,0.64241 0,0.18873 0.01834,0.47589 0.05539,0.86254 h 0.152048 c 0.06879,0.004 0.11924,0.007 0.151342,0.007 0.09701,0 0.232481,-0.004 0.407458,-0.0145 v 0.28363 c -0.02787,0 -0.26035,-0.0116 -0.696735,-0.0349 0,1.52294 0.01799,2.51143 0.05468,2.96721 -0.105834,-0.0226 -0.206727,-0.0346 -0.303387,-0.0346 -0.08749,0 -0.188738,0.012 -0.303742,0.0346 0.0321,-0.28998 0.04833,-0.98883 0.04833,-2.09761 v -0.8696 c -0.105479,0 -0.259996,0.005 -0.462137,0.0138 v -0.26246 c 0.137935,0.0106 0.234595,0.0145 0.289628,0.0145 0.02328,0 0.05503,-0.002 0.09666,-0.007 h 0.0896 c 0.0042,-0.61666 0.131233,-1.10208 0.379942,-1.45592 0.238479,-0.34008 0.556331,-0.51082 0.951796,-0.51082 0.06032,0 0.105833,0.002 0.137935,0.007 m 4.553657,3.76978 c 0,0.44521 -0.149225,0.80504 -0.448734,1.07809 -0.29845,0.27305 -0.696031,0.41028 -1.193448,0.41028 -0.459668,0 -0.846315,-0.12206 -1.158875,-0.36653 0.08326,-0.24377 0.13335,-0.48754 0.152048,-0.73131 0.215546,0.54751 0.595135,0.82091 1.13806,0.82091 0.294569,0 0.532342,-0.0907 0.714375,-0.27199 0.181682,-0.18203 0.272699,-0.42933 0.272699,-0.74189 0,-0.22119 -0.05821,-0.39793 -0.172863,-0.53128 -0.101246,-0.11995 -0.275519,-0.23213 -0.524579,-0.33832 l -0.558096,-0.23424 c -0.612421,-0.25753 -0.918279,-0.64418 -0.918279,-1.15958 0,-0.39053 0.134408,-0.71085 0.403929,-0.95885 0.268464,-0.24871 0.620183,-0.37218 1.051983,-0.37218 0.363363,0 0.712965,0.0847 1.049163,0.25435 -0.0695,0.14323 -0.133705,0.32032 -0.193323,0.53199 -0.243769,-0.34996 -0.561975,-0.52458 -0.9525,-0.52458 -0.252942,0 -0.454025,0.0773 -0.603602,0.23071 -0.14958,0.15417 -0.224367,0.3616 -0.224367,0.62371 0,0.35772 0.232127,0.63818 0.697087,0.84067 l 0.559155,0.2406 c 0.322085,0.13829 0.554212,0.2988 0.696383,0.4826 0.142875,0.1838 0.213784,0.42263 0.213784,0.71684 m 3.229326,-1.645 c -0.07373,0.17039 -0.135818,0.36795 -0.185914,0.59373 -0.193675,-0.43251 -0.506587,-0.64876 -0.938742,-0.64876 -0.36336,0 -0.646287,0.12806 -0.848783,0.38347 -0.202494,0.25505 -0.303387,0.617 -0.303387,1.0862 0,0.45085 0.108653,0.8061 0.327728,1.06645 0.218372,0.25964 0.509059,0.38946 0.872773,0.38946 0.367949,0 0.715434,-0.1658 1.041752,-0.49671 -0.0095,0.12841 -0.01376,0.21343 -0.01376,0.25541 0,0.0642 0.0021,0.11042 0.0071,0.13759 -0.294216,0.23036 -0.687916,0.34572 -1.179689,0.34572 -0.482952,0 -0.872419,-0.15487 -1.166284,-0.46285 -0.294568,-0.30832 -0.442029,-0.71755 -0.442029,-1.22802 0,-0.51505 0.155575,-0.92674 0.466371,-1.23472 0.310446,-0.30833 0.723196,-0.46249 1.23825,-0.46249 0.395465,0 0.770467,0.0917 1.124656,0.27552 m 1.1938,-1.41358 c 0,0.096 -0.03457,0.17851 -0.103364,0.248 -0.06914,0.0684 -0.152046,0.10337 -0.248354,0.10337 -0.09701,0 -0.179917,-0.0349 -0.248357,-0.10337 -0.06914,-0.0695 -0.103716,-0.15204 -0.103716,-0.248 0,-0.097 0.03457,-0.17851 0.103716,-0.24589 0.06844,-0.066 0.151342,-0.0995 0.248357,-0.0995 0.09631,0 0.17921,0.0335 0.248354,0.0995 0.06879,0.0674 0.103364,0.14888 0.103364,0.24589 m -0.0695,4.45629 c -0.100893,-0.0222 -0.195085,-0.0342 -0.28222,-0.0342 -0.08361,0 -0.177448,0.012 -0.283282,0.0342 0.02257,-0.63006 0.03493,-1.20015 0.03493,-1.71097 0,-0.46885 -0.01236,-0.98425 -0.03493,-1.54552 0.08714,0.0183 0.182034,0.0279 0.283282,0.0279 0.110066,0 0.204258,-0.01 0.28222,-0.0279 -0.02257,0.56621 -0.03387,1.08091 -0.03387,1.54552 0,0.51082 0.0113,1.08091 0.03387,1.71097 m 3.663598,-1.82104 v 0.0751 c -0.0039,0.0325 -0.006,0.0582 -0.006,0.0765 h -2.374193 v 0.0208 c 0,0.95709 0.386643,1.43475 1.159227,1.43475 0.396171,0 0.750006,-0.15346 1.062921,-0.46249 -0.0092,0.11959 -0.01376,0.20708 -0.01376,0.26246 v 0.0829 c -0.359482,0.26247 -0.749655,0.39335 -1.17334,0.39335 -0.4826,0 -0.875242,-0.15663 -1.17616,-0.4692 -0.301625,-0.31326 -0.451909,-0.71755 -0.451909,-1.21461 0,-0.51505 0.144637,-0.92745 0.434621,-1.23825 0.289631,-0.31044 0.673454,-0.46496 1.152525,-0.46496 0.441679,0 0.782463,0.12912 1.024466,0.38876 0.2413,0.26 0.361598,0.63183 0.361598,1.11478 m -0.551391,-0.09 v -0.11783 c 0,-0.34184 -0.07761,-0.6096 -0.231423,-0.80151 -0.153811,-0.19226 -0.364419,-0.28787 -0.631471,-0.28787 -0.261763,0 -0.482954,0.10654 -0.662165,0.31856 -0.17921,0.22719 -0.275518,0.52282 -0.289983,0.88865 z m 3.93982,1.911 c -0.105833,-0.0222 -0.200377,-0.0342 -0.282927,-0.0342 -0.0829,0 -0.177093,0.012 -0.283281,0.0342 0.02752,-0.4826 0.04163,-1.13313 0.04163,-1.95298 0,-0.67945 -0.262466,-1.02059 -0.786341,-1.02059 -0.27164,0 -0.485775,0.0991 -0.642057,0.29669 -0.156633,0.19791 -0.234243,0.55703 -0.234243,1.07597 v 0.31115 c 0,0.62583 0.0071,1.05516 0.02045,1.28976 -0.105833,-0.0222 -0.202493,-0.0342 -0.289983,-0.0342 -0.0829,0 -0.177094,0.012 -0.282927,0.0342 0.01833,-0.25718 0.02752,-0.65758 0.02752,-1.20015 v -0.48966 c 0,-0.7179 -0.0092,-1.24001 -0.02752,-1.56669 0.08784,0.0183 0.182385,0.0279 0.282927,0.0279 0.106188,0 0.195791,-0.01 0.269523,-0.0279 -0.0095,0.16616 -0.0141,0.28293 -0.0141,0.35208 0,0.0272 0.0021,0.0688 0.0074,0.12417 v 0.12453 c 0.26176,-0.44626 0.623004,-0.66922 1.083027,-0.66922 0.735541,0 1.103841,0.41134 1.103841,1.23437 0,0.11536 -0.0024,0.28434 -0.0067,0.50765 -0.0046,0.2226 -0.0067,0.3877 -0.0067,0.49318 0,0.34044 0.0067,0.70415 0.02045,1.08974 M 79.667932,156.47 c -0.07338,0.17039 -0.135115,0.36794 -0.186267,0.59372 -0.192617,-0.4325 -0.505883,-0.64876 -0.937683,-0.64876 -0.364067,0 -0.646642,0.12806 -0.849138,0.38347 -0.202494,0.25506 -0.303387,0.61701 -0.303387,1.08621 0,0.45085 0.10936,0.80609 0.328083,1.06644 0.218369,0.25965 0.508704,0.38947 0.872419,0.38947 0.367948,0 0.715081,-0.16581 1.0414,-0.49671 -0.0088,0.12841 -0.01376,0.21343 -0.01376,0.25541 0,0.0642 0.0024,0.11042 0.0071,0.13758 -0.294572,0.23037 -0.687213,0.34573 -1.17969,0.34573 -0.482952,0 -0.87136,-0.15487 -1.166283,-0.46285 -0.294569,-0.30833 -0.441325,-0.71755 -0.441325,-1.22802 0,-0.51505 0.155223,-0.92675 0.465666,-1.23472 0.310798,-0.30833 0.723548,-0.46249 1.238957,-0.46249 0.395462,0 0.770112,0.0917 1.12395,0.27552 m 3.208866,1.22167 v 0.0751 c -0.0049,0.0325 -0.0067,0.0582 -0.0067,0.0765 h -2.373841 v 0.0208 c 0,0.95708 0.385939,1.43474 1.159581,1.43474 0.395465,0 0.7493,-0.15345 1.062567,-0.46249 -0.0099,0.11959 -0.0141,0.20708 -0.0141,0.26247 v 0.0829 c -0.359129,0.26247 -0.749654,0.39335 -1.173339,0.39335 -0.482952,0 -0.875242,-0.15664 -1.176161,-0.4692 -0.301625,-0.31327 -0.451908,-0.71755 -0.451908,-1.21461 0,-0.51506 0.144637,-0.92746 0.434621,-1.23825 0.289983,-0.31045 0.674158,-0.46496 1.152525,-0.46496 0.441325,0 0.782814,0.12911 1.024466,0.38876 0.2413,0.25999 0.362305,0.63182 0.362305,1.11478 m -0.552098,-0.09 v -0.11783 c 0,-0.34184 -0.07726,-0.6096 -0.231069,-0.80151 -0.153813,-0.19227 -0.364773,-0.28787 -0.631473,-0.28787 -0.262115,0 -0.482952,0.10654 -0.662165,0.31856 -0.17921,0.22719 -0.276225,0.52282 -0.289983,0.88865 z m 5.609518,1.80093 c -0.248002,0.0737 -0.437091,0.11042 -0.565854,0.11042 -0.211314,0 -0.337962,-0.133 -0.379237,-0.40005 -0.294569,0.30832 -0.637469,0.46213 -1.027994,0.46213 -0.635,0 -0.952852,-0.28328 -0.952852,-0.84878 0,-0.48295 0.2667,-0.78211 0.800452,-0.89676 0.252942,-0.0508 0.508352,-0.1016 0.765881,-0.15205 0.216252,-0.0459 0.361596,-0.10054 0.434621,-0.16474 v -0.14571 c 0,-0.30832 -0.05821,-0.53586 -0.175329,-0.68297 -0.117475,-0.14782 -0.314679,-0.22084 -0.589846,-0.22084 -0.377825,0 -0.67451,0.16333 -0.890762,0.49001 h -0.05539 l 0.01447,-0.36548 c 0.307623,-0.25788 0.678743,-0.387 1.110543,-0.387 0.386646,0 0.664634,0.0935 0.835025,0.27975 0.17004,0.18592 0.255059,0.47943 0.255059,0.87983 v 0.0825 l -0.02716,1.37337 c 0,0.15592 0.0113,0.26211 0.03457,0.31714 0.04092,0.0924 0.130881,0.13794 0.268817,0.13794 0.0508,0 0.08996,-0.002 0.117475,-0.007 z m -0.938035,-0.7112 v -0.88936 c -0.543277,0.0917 -0.904523,0.18415 -1.083381,0.27587 -0.225425,0.11465 -0.338667,0.30163 -0.338667,0.5588 0,0.43709 0.204613,0.65511 0.614188,0.65511 0.257527,0 0.487891,-0.10089 0.690385,-0.30339 0.07796,-0.078 0.117475,-0.17709 0.117475,-0.29704 m 4.215342,0.82127 c -0.105834,-0.0222 -0.200377,-0.0342 -0.282927,-0.0342 -0.0822,0 -0.176742,0.012 -0.28293,0.0342 0.02752,-0.4826 0.04127,-1.13312 0.04127,-1.95298 0,-0.67945 -0.262466,-1.02058 -0.786341,-1.02058 -0.271992,0 -0.485775,0.0991 -0.641702,0.29668 -0.156282,0.19791 -0.234244,0.55704 -0.234244,1.07597 v 0.31115 c 0,0.62583 0.0063,1.05516 0.02045,1.28976 -0.106185,-0.0222 -0.202493,-0.0342 -0.290335,-0.0342 -0.08255,0 -0.177096,0.012 -0.282575,0.0342 0.01834,-0.25718 0.02787,-0.65758 0.02787,-1.20015 v -0.48967 c 0,-0.7179 -0.0095,-1.24001 -0.02787,-1.56668 0.08749,0.0183 0.182034,0.0279 0.282575,0.0279 0.106537,0 0.196144,-0.009 0.269875,-0.0279 -0.0095,0.16616 -0.0141,0.28293 -0.0141,0.35207 0,0.0272 0.0019,0.0688 0.0071,0.12418 v 0.12453 c 0.262115,-0.44627 0.623711,-0.66922 1.083027,-0.66922 0.735896,0 1.103842,0.41134 1.103842,1.23437 0,0.11536 -0.0021,0.28434 -0.0067,0.50765 -0.0046,0.2226 -0.0071,0.3877 -0.0071,0.49318 0,0.34043 0.0071,0.70414 0.02082,1.08973 m 3.76061,0 c -0.106185,-0.0226 -0.202141,-0.0342 -0.289628,-0.0342 -0.08784,0 -0.184505,0.0116 -0.289984,0.0342 0.0092,-0.17427 0.01376,-0.31009 0.01376,-0.40675 0,-0.11501 -0.0021,-0.20214 -0.0071,-0.26247 -0.252941,0.48789 -0.646641,0.73131 -1.179689,0.73131 -0.414513,0 -0.748946,-0.14746 -1.004359,-0.4445 -0.255058,-0.29633 -0.382762,-0.69321 -0.382762,-1.19063 0,-0.52422 0.136877,-0.94615 0.410985,-1.26612 0.273402,-0.31997 0.624065,-0.47907 1.051632,-0.47907 0.473779,0 0.837493,0.21167 1.090435,0.6343 0,-0.22966 0.0021,-0.4826 0.0071,-0.75848 v -0.4826 c 0,-0.43321 -0.0071,-0.84984 -0.02117,-1.24953 0.119943,0.0318 0.21872,0.0487 0.297037,0.0487 0.0829,0 0.179213,-0.0169 0.289631,-0.0487 -0.01834,0.54786 -0.02752,1.28622 -0.02752,2.21473 0,1.09079 0.0141,2.07716 0.04163,2.95981 m -0.57291,-1.72438 c 0,-0.42827 -0.08502,-0.75706 -0.255058,-0.98672 -0.170392,-0.23001 -0.40781,-0.34537 -0.710848,-0.34537 -0.322085,0 -0.573969,0.12665 -0.755296,0.37959 -0.182033,0.25365 -0.272698,0.61454 -0.272698,1.08338 0,0.44662 0.08361,0.78987 0.251532,1.03188 0.168275,0.2413 0.40146,0.36195 0.700616,0.36195 0.330904,0 0.587375,-0.12982 0.769409,-0.38982 0.180975,-0.25965 0.272343,-0.63782 0.272343,-1.13489 m 6.299554,-2.58092 c -0.0138,-0.0692 -0.0204,-0.13794 -0.0204,-0.20708 0,-0.073 0.007,-0.1397 0.0204,-0.20038 -0.63923,0.0145 -1.251304,0.0215 -1.835504,0.0215 -0.574675,0 -1.124302,-0.007 -1.649235,-0.0215 0.0099,0.0931 0.0141,0.16369 0.0141,0.21449 0,0.0459 -0.0042,0.11042 -0.0141,0.19297 0.299154,-0.055 0.722135,-0.0825 1.27,-0.0825 h 0.186267 v 1.15217 c 0,0.89218 -0.01164,1.97097 -0.03457,3.23603 0.07832,-0.009 0.188383,-0.0138 0.331258,-0.0138 0.142168,0 0.24624,0.005 0.310443,0.0138 -0.02257,-1.05833 -0.03457,-2.00554 -0.03457,-2.84233 0,-0.64911 0.01199,-1.16416 0.03457,-1.54587 h 0.20038 c 0.505883,0 0.912631,0.0275 1.220961,0.0825 m 2.42217,2.48426 v 0.0751 c -0.005,0.0325 -0.007,0.0582 -0.007,0.0766 h -2.37313 v 0.0208 c 0,0.95709 0.38629,1.43475 1.15923,1.43475 0.39581,0 0.74965,-0.15346 1.06221,-0.46249 -0.009,0.11959 -0.0141,0.20708 -0.0141,0.26246 v 0.0829 c -0.35807,0.26247 -0.74965,0.39335 -1.17263,0.39335 -0.48295,0 -0.87524,-0.15663 -1.17651,-0.46919 -0.30163,-0.31327 -0.45156,-0.71755 -0.45156,-1.21462 0,-0.51505 0.14464,-0.92745 0.43427,-1.23825 0.28998,-0.31044 0.67416,-0.46496 1.15217,-0.46496 0.44203,0 0.78387,0.12912 1.02517,0.38876 0.24166,0.26 0.36231,0.63183 0.36231,1.11478 m -0.5521,-0.09 v -0.11783 c 0,-0.34184 -0.0773,-0.6096 -0.23142,-0.80151 -0.15417,-0.19226 -0.36407,-0.28787 -0.63112,-0.28787 -0.26212,0 -0.48296,0.10654 -0.66252,0.31856 -0.17921,0.22719 -0.27587,0.52282 -0.28998,0.88865 z m 3.7532,-1.13171 c -0.073,0.17039 -0.13582,0.36795 -0.18662,0.59372 -0.19226,-0.4325 -0.50518,-0.64876 -0.93803,-0.64876 -0.36301,0 -0.64594,0.12806 -0.84808,0.38347 -0.2032,0.25506 -0.30374,0.61701 -0.30374,1.08621 0,0.45085 0.10865,0.80609 0.32773,1.06644 0.21801,0.25965 0.50905,0.38947 0.87277,0.38947 0.36759,0 0.71508,-0.1658 1.04175,-0.49671 -0.009,0.12841 -0.0141,0.21343 -0.0141,0.25541 0,0.0642 0.002,0.11042 0.007,0.13758 -0.29457,0.23037 -0.68792,0.34573 -1.18004,0.34573 -0.48296,0 -0.87136,-0.15487 -1.16593,-0.46285 -0.29422,-0.30833 -0.44133,-0.71755 -0.44133,-1.22802 0,-0.51505 0.15487,-0.92674 0.46567,-1.23472 0.31009,-0.30833 0.72319,-0.46249 1.23825,-0.46249 0.39546,0 0.77082,0.0917 1.12466,0.27552 m 3.24343,3.04271 c -0.1016,-0.0222 -0.19579,-0.0342 -0.28292,-0.0342 -0.0825,0 -0.1771,0.012 -0.28293,0.0342 0.0226,-0.84103 0.0342,-1.4531 0.0342,-1.83551 0,-0.39475 -0.06,-0.68368 -0.18027,-0.86571 -0.1203,-0.18098 -0.32279,-0.27235 -0.60925,-0.27235 -0.3369,0 -0.5842,0.1517 -0.74189,0.45544 -0.0921,0.17992 -0.13829,0.58667 -0.13829,1.22132 v 0.48965 c 0,0.16581 0.007,0.43498 0.0208,0.80716 -0.10407,-0.0222 -0.20002,-0.0342 -0.2861,-0.0342 -0.0822,0 -0.17286,0.012 -0.27341,0.0342 0.0233,-1.03929 0.0349,-1.90183 0.0349,-2.58692 0,-0.81915 -0.0116,-1.68099 -0.0349,-2.58763 0.13653,0.0183 0.23213,0.0279 0.28681,0.0279 0.0684,0 0.16158,-0.009 0.27976,-0.0279 -0.0191,0.51541 -0.0279,1.028 -0.0279,1.53882 0,0.18838 0.005,0.50412 0.0141,0.94544 0.28116,-0.41839 0.63852,-0.62794 1.07244,-0.62794 0.73872,0 1.10808,0.3997 1.10808,1.2005 0,0.0875 -0.004,0.24942 -0.0109,0.48648 -0.007,0.23672 -0.0102,0.42898 -0.0102,0.57574 0,0.0878 0.01,0.4392 0.0279,1.05551 m 3.63643,0 c -0.10583,-0.0222 -0.20038,-0.0342 -0.28293,-0.0342 -0.0829,0 -0.1778,0.012 -0.28293,0.0342 0.0268,-0.4826 0.0413,-1.13313 0.0413,-1.95298 0,-0.67945 -0.26282,-1.02059 -0.78634,-1.02059 -0.27199,0 -0.48577,0.0991 -0.64205,0.29669 -0.15664,0.19791 -0.2346,0.55703 -0.2346,1.07597 v 0.31115 c 0,0.62583 0.007,1.05516 0.0204,1.28976 -0.10619,-0.0222 -0.20214,-0.0342 -0.28998,-0.0342 -0.0825,0 -0.17745,0.012 -0.28328,0.0342 0.0191,-0.25718 0.0282,-0.65758 0.0282,-1.20015 v -0.48966 c 0,-0.7179 -0.009,-1.24001 -0.0282,-1.56669 0.0878,0.0183 0.18238,0.0279 0.28328,0.0279 0.10618,0 0.19614,-0.01 0.26952,-0.0279 -0.009,0.16616 -0.0145,0.28293 -0.0145,0.35208 0,0.0272 0.002,0.0688 0.008,0.12417 v 0.12454 c 0.26211,-0.44627 0.62265,-0.66922 1.08267,-0.66922 0.73554,0 1.10455,0.41133 1.10455,1.23437 0,0.11535 -0.003,0.28433 -0.007,0.50764 -0.005,0.22261 -0.007,0.38771 -0.007,0.49319 0,0.34043 0.007,0.70414 0.0212,1.08973 m 3.89784,-1.62807 c 0,0.50623 -0.15346,0.91475 -0.46249,1.22449 -0.30833,0.3108 -0.69885,0.46602 -1.17228,0.46602 -0.47872,0 -0.87172,-0.15628 -1.17652,-0.4692 -0.30585,-0.31291 -0.45861,-0.72037 -0.45861,-1.22131 0,-0.49636 0.15417,-0.90241 0.46532,-1.21779 0.31115,-0.31539 0.70061,-0.47237 1.16981,-0.47237 0.48295,0 0.8763,0.15663 1.17933,0.46919 0.30339,0.31256 0.45544,0.71967 0.45544,1.22097 m -0.59337,0.0413 c 0,-1.016 -0.34925,-1.52541 -1.04846,-1.52541 -0.69038,0 -1.0354,0.49318 -1.0354,1.47743 0,0.99342 0.34749,1.49049 1.04246,1.49049 0.69426,0 1.0414,-0.48084 1.0414,-1.44251 m 1.80022,1.58679 c -0.10054,-0.013 -0.19861,-0.0201 -0.29633,-0.0201 -0.0914,0 -0.18344,0.007 -0.27552,0.0201 0.018,-0.30797 0.0275,-0.97966 0.0275,-2.01436 v -1.80799 c 0,-0.64805 -0.009,-1.09925 -0.0275,-1.35219 0.11994,0.01 0.21131,0.0138 0.27552,0.0138 0.0695,0 0.16792,-0.004 0.29633,-0.0138 -0.0222,0.42333 -0.0335,1.13136 -0.0335,2.12513 0,1.53176 0.0113,2.54847 0.0335,3.04941 m 3.90631,-1.62807 c 0,0.50624 -0.15452,0.91475 -0.46249,1.22449 -0.30833,0.3108 -0.69956,0.46602 -1.17228,0.46602 -0.47907,0 -0.87136,-0.15628 -1.17757,-0.46919 -0.30621,-0.31292 -0.45826,-0.72037 -0.45826,-1.22132 0,-0.49636 0.15487,-0.9024 0.46567,-1.21779 0.31009,-0.31538 0.70061,-0.47237 1.17016,-0.47237 0.48189,0 0.87595,0.15664 1.17934,0.4692 0.30303,0.31256 0.45543,0.71966 0.45543,1.22096 m -0.59372,0.0413 c 0,-1.016 -0.3489,-1.52541 -1.04916,-1.52541 -0.68969,0 -1.0347,0.49318 -1.0347,1.47743 0,0.99343 0.34678,1.49049 1.04281,1.49049 0.69427,0 1.04105,-0.48084 1.04105,-1.44251 m 3.4297,2.31175 c 0,-0.2995 -0.10371,-0.49918 -0.3108,-0.60042 -0.17497,-0.0825 -0.50658,-0.12418 -0.99377,-0.12418 -0.0413,0 -0.11218,0.005 -0.21414,0.0138 -0.40393,0.12876 -0.60713,0.39758 -0.60713,0.80751 0,0.25753 0.0875,0.46708 0.26318,0.62794 0.17391,0.16087 0.40428,0.2413 0.68932,0.2413 0.34537,0 0.62689,-0.0903 0.84526,-0.27199 0.21802,-0.18239 0.32808,-0.41345 0.32808,-0.69391 m -0.40079,-2.95311 c 0,-0.60748 -0.23812,-0.91087 -0.71402,-0.91087 -0.22931,0 -0.41451,0.0836 -0.55668,0.25188 -0.14147,0.16793 -0.21238,0.38771 -0.21238,0.65899 0,0.28928 0.0684,0.51365 0.20603,0.6724 0.13723,0.1591 0.3242,0.23812 0.56303,0.23812 0.4759,0 0.71402,-0.30339 0.71402,-0.91052 m 3.90561,-1.02834 c -0.13794,0.27128 -0.35666,0.74506 -0.65511,1.42134 l -0.92499,2.09021 c -0.33584,0.75953 -0.54469,1.30245 -0.62794,1.62877 -0.0737,-0.0138 -0.15134,-0.0205 -0.2346,-0.0205 -0.0776,0 -0.15875,0.007 -0.2413,0.0205 0.22966,-0.38558 0.4819,-0.89923 0.75883,-1.53846 l 0.15804,-0.36548 -0.28928,-0.75953 c -0.13476,-0.34996 -0.47978,-1.14476 -1.03505,-2.38407 v 0.15522 c -0.15099,-0.013 -0.29386,-0.0201 -0.42721,-0.0201 h -0.13864 c 0.17921,0.23954 0.26952,0.5013 0.26952,0.78669 0,0.34467 -0.11183,0.61454 -0.33443,0.80998 -0.22367,0.19615 -0.52811,0.29387 -0.91476,0.29387 -0.0593,0 -0.13158,-0.004 -0.21731,-0.0141 -0.0854,-0.009 -0.13935,-0.0134 -0.16227,-0.0134 -0.21626,0 -0.32421,0.10795 -0.32421,0.32455 0,0.25259 0.17886,0.37888 0.53869,0.37888 -0.005,0 0.0367,-0.002 0.12383,-0.007 h 0.26211 c 0.48754,0 0.83503,0.0624 1.04175,0.18627 0.23037,0.14323 0.34467,0.3937 0.34467,0.75283 0,0.42263 -0.16087,0.76658 -0.48331,1.03082 -0.32138,0.26458 -0.74718,0.39758 -1.27564,0.39758 -0.38664,0 -0.69109,-0.0914 -0.9144,-0.2727 -0.22331,-0.18203 -0.33479,-0.42228 -0.33479,-0.72108 0,-0.45085 0.25612,-0.76165 0.76624,-0.93168 -0.34925,-0.078 -0.52494,-0.27164 -0.52494,-0.57927 0,-0.24412 0.18239,-0.45825 0.5454,-0.6424 -0.45967,-0.14641 -0.68968,-0.45509 -0.68968,-0.92463 0,-0.34925 0.12276,-0.62971 0.369,-0.84173 0.24589,-0.21132 0.58103,-0.31715 1.00365,-0.31715 0.12489,0 0.27553,0.0127 0.45156,0.0381 0.17709,0.0254 0.29598,0.0377 0.3556,0.0377 0.11959,0 0.34325,-0.0183 0.66957,-0.0554 v 0.0628 c 0.0871,0.0138 0.18556,0.0205 0.29598,0.0205 0.12489,0 0.23566,-0.009 0.33232,-0.0279 0.11889,0.4191 0.36512,1.0862 0.73801,2.00096 l 0.2413,0.59372 0.248,-0.57291 c 0.35031,-0.80927 0.60784,-1.48343 0.77294,-2.02177 0.0695,0.0187 0.14781,0.0279 0.23495,0.0279 0.0833,0 0.1591,-0.009 0.2279,-0.0279 m -67.169286,-8.83524 c -0.294216,0.86536 -0.818795,2.43557 -1.573035,4.71311 -0.07373,-0.0183 -0.154517,-0.0279 -0.241652,-0.0279 -0.09631,0 -0.179565,0.0116 -0.248356,0.0346 -0.341135,-1.17263 -0.763765,-2.46098 -1.269294,-3.86327 l -1.291166,3.85657 c -0.09172,-0.0229 -0.171805,-0.0346 -0.2413,-0.0346 -0.06844,0 -0.149225,0.0116 -0.2413,0.0346 -0.35419,-1.17264 -0.845962,-2.74391 -1.476376,-4.71311 0.09631,0.019 0.206727,0.0282 0.330552,0.0282 0.124884,0 0.23495,-0.009 0.331964,-0.0282 0.37712,1.39453 0.774701,2.74637 1.193447,4.05765 0.478721,-1.31128 0.910873,-2.66312 1.297516,-4.05765 0.06879,0.019 0.142172,0.0282 0.220134,0.0282 0.08326,0 0.159104,-0.009 0.228248,-0.0282 0.404635,1.32538 0.846315,2.65465 1.324681,3.98886 0.455435,-1.30669 0.855485,-2.63631 1.200502,-3.98886 0.06914,0.019 0.142523,0.0282 0.22084,0.0282 0.08713,0 0.165804,-0.009 0.234595,-0.0282" />
    </g>
  </g>
</svg>
